<svg viewBox="0 0 560 232" xmlns="http://www.w3.org/2000/svg" role="img" aria-label="crei"><rect x="0" y="0" width="560" height="232" rx="26" fill="#ECE6DA"/><g transform="translate(64,150) scale(0.12000,-0.12000)" fill="#7A5490"><path transform="translate(0.0,0)" d="M83 63V157L388 304Q407 313 424.0 319.5Q441 326 450 328Q441 330 423.0 336.5Q405 343 388 352L83 500V597L517 383V277Z"/></g><g transform="translate(208.0,150) scale(0.12000,-0.12000)" fill="#2A2630"><path transform="translate(0.0,0)" d="M308 -10Q207 -10 146.0 46.5Q85 103 85 202V349Q85 447 146.0 503.5Q207 560 308 560Q405 560 464.5 508.5Q524 457 527 368H429Q426 418 393.5 445.5Q361 473 308 473Q251 473 217.5 440.5Q184 408 184 349V202Q184 142 217.5 110.0Q251 78 308 78Q362 78 394.0 105.0Q426 132 429 182H527Q524 93 464.5 41.5Q405 -10 308 -10Z"/><path transform="translate(600.0,0)" d="M108 0V550H206V444H207Q215 498 253.5 529.0Q292 560 356 560Q441 560 488.0 507.5Q535 455 535 360V312H436V359Q436 474 323 474Q266 474 236.5 441.0Q207 408 207 347V0Z"/><path transform="translate(1200.0,0)" d="M300 -10Q201 -10 140.5 49.0Q80 108 80 210V340Q80 442 140.5 501.0Q201 560 300 560Q366 560 415.5 533.5Q465 507 492.5 459.5Q520 412 520 349V250H177V202Q177 142 210.0 108.0Q243 74 300 74Q348 74 379.0 92.0Q410 110 416 142H515Q505 72 446.0 31.0Q387 -10 300 -10ZM177 349V323H423V349Q423 412 391.0 446.0Q359 480 300 480Q241 480 209.0 446.0Q177 412 177 349Z"/><path transform="translate(1800.0,0)" d="M83 0V90H276V460H103V550H375V90H556V0ZM316 647Q282 647 262.0 664.5Q242 682 242 712Q242 743 262.0 761.0Q282 779 316 779Q350 779 370.0 761.0Q390 743 390 712Q390 682 370.0 664.5Q350 647 316 647Z"/></g><g transform="translate(66,208) scale(0.03000,-0.03000)" fill="#6B6473"><path transform="translate(0.0,0)" d="M308 -10Q208 -10 148.0 46.0Q88 102 88 200V350Q88 448 148.0 504.0Q208 560 308 560Q403 560 461.5 509.0Q520 458 523 370H433Q430 423 397.0 451.5Q364 480 308 480Q249 480 213.5 446.5Q178 413 178 351V200Q178 138 213.5 104.0Q249 70 308 70Q364 70 397.0 99.0Q430 128 433 180H523Q520 92 461.5 41.0Q403 -10 308 -10Z"/><path transform="translate(666.7,0)" d="M112 0V550H202V445H204Q211 498 249.0 529.0Q287 560 351 560Q437 560 483.5 508.5Q530 457 530 362V315H440V362Q440 482 323 482Q264 482 233.0 448.0Q202 414 202 350V0Z"/><path transform="translate(1333.3,0)" d="M300 -10Q203 -10 143.5 48.5Q84 107 84 210V340Q84 443 143.5 501.5Q203 560 300 560Q365 560 413.5 534.0Q462 508 489.0 461.0Q516 414 516 350V252H172V200Q172 139 207.0 103.5Q242 68 300 68Q350 68 382.5 87.5Q415 107 422 140H512Q503 71 445.0 30.5Q387 -10 300 -10ZM172 322H428V350Q428 415 394.5 450.5Q361 486 300 486Q239 486 205.5 450.5Q172 415 172 350Z"/><path transform="translate(2000.0,0)" d="M85 0V82H280V468H105V550H370V82H555V0ZM315 649Q282 649 263.0 666.0Q244 683 244 712Q244 742 263.0 759.5Q282 777 315 777Q348 777 367.0 759.5Q386 742 386 712Q386 683 367.0 666.0Q348 649 315 649Z"/><path transform="translate(2666.7,0)" d="M268 -10Q186 -10 136.5 45.0Q87 100 87 194V355Q87 450 136.0 505.0Q185 560 268 560Q330 560 370.5 529.0Q411 498 419 445H420L418 570V730H508V0H418V105H417Q410 51 370.0 20.5Q330 -10 268 -10ZM298 68Q354 68 386.0 103.0Q418 138 418 200V350Q418 412 386.0 447.0Q354 482 298 482Q241 482 209.0 452.5Q177 423 177 355V195Q177 128 209.0 98.0Q241 68 298 68Z"/><path transform="translate(3333.3,0)" d="M92 0V730H182V445H183Q190 500 228.0 530.0Q266 560 329 560Q412 560 461.0 509.0Q510 458 510 370V0H420V355Q420 417 388.5 450.5Q357 484 303 484Q247 484 214.5 449.0Q182 414 182 350V0Z"/><path transform="translate(4000.0,0)" d="M92 0V550H182V445H183Q190 500 228.0 530.0Q266 560 329 560Q412 560 461.0 509.0Q510 458 510 370V0H420V354Q420 417 388.5 450.5Q357 484 303 484Q247 484 214.5 449.0Q182 414 182 350V0Z"/><path transform="translate(4666.7,0)" d="M300 -10Q203 -10 143.5 48.5Q84 107 84 210V340Q84 443 143.5 501.5Q203 560 300 560Q365 560 413.5 534.0Q462 508 489.0 461.0Q516 414 516 350V252H172V200Q172 139 207.0 103.5Q242 68 300 68Q350 68 382.5 87.5Q415 107 422 140H512Q503 71 445.0 30.5Q387 -10 300 -10ZM172 322H428V350Q428 415 394.5 450.5Q361 486 300 486Q239 486 205.5 450.5Q172 415 172 350Z"/></g></svg>